# xmcd
#
# Track frame offsets:
# 150
# 15453
# 31936
# 56409
# 70256
# 95315
# 116888
# 137610
# 159997
# 172195
# 187011
# 202745
#
# Disc length: 2739 seconds
#
#
# Revision: 1
# Processed by: cddbd v1.5.2PL0 Copyright (c) Steve Scherf et al.
# Submitted via: FreeRIP 2.96 
#
DISCID=9b0ab10c
DTITLE=The Jelly Jam - 2
DYEAR=2004
DGENRE=Hard Rock
TTITLE0=Not Today
TTITLE1=Coming Round
TTITLE2=Empty
TTITLE3=Drop The Gun
TTITLE4=Allison
TTITLE5=Maybe
TTITLE6=She Was Alone
TTITLE7=Angel Or Devil
TTITLE8=You Don't Need Me Anyway
TTITLE9=Runaway
TTITLE10=War Is...
TTITLE11=Message
EXTD=PB
EXTT0=
EXTT1=
EXTT2=
EXTT3=
EXTT4=
EXTT5=
EXTT6=
EXTT7=
EXTT8=
EXTT9=
EXTT10=
EXTT11=
PLAYORDER=
